<svg preserveAspectRatio="none" width="112" height="136" viewBox="0 0 112 136" xmlns="http://www.w3.org/2000/svg"><title>Page 1</title><g fill="none" fill-rule="evenodd"><g transform="translate(-362 -549)" stroke="#000"><g transform="translate(363 550)"><path vector-effect="non-scaling-stroke" d="M27.274 40.099c1.456-11.374 7.68-21.892 16.44-28.948C52.477 4.095 63.625.444 74.735.322c5.618-.062 11.372.79 16.317 3.542 7.288 4.057 12.063 11.866 14.426 20.06 2.362 8.193 2.603 16.854 2.827 25.4.026.971.011 2.056-.64 2.756-.656.704-1.71.76-2.654.764a245.325 245.325 0 0 1-53.234-5.617c-5.02-1.093-10.047-2.35-15.176-2.521C21.107 44.186 5.84 54.734.395 69.719c18.123 7.695 37.829 11.386 57.415 10.756 1.235-.04 2.55-.124 3.548-.879 1.075-.814 1.53-2.212 2.081-3.466 3.406-7.752 11.847-11.687 19.878-13.603 8.032-1.916 16.541-2.559 23.773-6.644a314.075 314.075 0 0 1 1.801 66.35l-28.983 3.296a254.433 254.433 0 0 0 7.98-38.278c-2.373 13.04-5.134 26.878-14.067 36.414-3.656 3.904-8.23 6.887-13.214 8.62-13.683 4.757-30.95-1.958-35.997-15.925-1.92-5.314-2.058-11.111-2.175-16.782l-.451-22.144-6.18.6c.198 18.556-.118 37.119-.95 55.657a45.27 45.27 0 0 1 18.473-3.189c1.272-2.307.431-5.299-1.08-7.447-1.51-2.147-3.607-3.785-5.22-5.852-4.767-6.11-4.568-14.744-4.135-22.577a126.09 126.09 0 0 0 22.83-.942c1.776 6.93-.506 14.8-5.679 19.582-1.29 1.193-3.04 2.252-4.673 1.66-1.027-.373-1.744-1.319-2.362-2.245a39.201 39.201 0 0 1-4.28-8.514c-.731-2.039-1.182-4.63.337-6.133.792-.783 1.926-1.043 3.001-1.262a179.926 179.926 0 0 1 26.095-3.348c1.404-.077 2.85-.131 4.175.35 3.974 1.443 5.002 6.647 5.404 10.976.206 2.22.402 4.528-.345 6.62-.748 2.091-2.737 3.89-4.878 3.6-1.918-.26-3.283-2.008-4.341-3.68a53.827 53.827 0 0 1-5.609-11.855c-.365-1.103-.693-2.323-.283-3.41.67-1.778 2.857-2.237 4.695-2.437l32.107-3.5c-8.148-6.056-15.334-13.492-21.18-21.918m-28.401 55.025c6.26 2.522 13.648 1.838 19.373-1.796"/></g></g></g></svg>