<svg preserveAspectRatio="none" width="182" height="219" viewBox="0 0 182 219" xmlns="http://www.w3.org/2000/svg"><title>Group 5</title><g fill="none" fill-rule="evenodd"><g transform="translate(1 1)" stroke="#000"><path vector-effect="non-scaling-stroke" d="M24.403 133.339c.616 22.234 4.272 11.121 19.25 50.426 14.686 38.535 74.231 32.576 79.475 32.576 5.243 0 43.395-30.789 45.16-65.477 1.113-21.858 2.8-21.813 8.334-28.375 10.31-12.226-5.807-86.84-12.341-90.531-13.242-7.48-12.056 3.568-24.657 6.026-6.232 1.216-38.894 2.444-45.162 3.458-3.753.608-9.193 20.139-29.338 32.61-20.145 12.47-25.884 6.186-38.415 9.194-9.288 2.23-3.64 22.146-3.653 33.188-.009 6.607 0 20.444-4.066 18.435-11.332-5.6 16.426-23.852 16.44-23.506.704 16.001 6.756 35.597 29.694 34.034 22.938-1.564 24.967-22.304 26.063-25.93.535-1.77-1.146-8.223-1.728-9.978-1.142-3.44-10.14 7.975-31.247 9.978-13.802 1.31-17.459-14.008-21.917-11.65-.557.294 42.049-28.898 54.16 5.28 1.27 3.59 1.893-4.146 6.03-4.713 4.137-.568 4.83 8.359 6.839 5.857 1.276-1.59 1.835 11.385 6.107 16.717 5.97 7.451 16.724 8.36 25.045 7.74 14.274-1.063 21.776-11.903 21.776-29.209 0-7.92-10.863-17.124-21.776-17.76-12.934-.753-26.45 8.416-29.292 16.087-2.16 5.833-5.185-15.201.824-16.808 5.356-1.432 57.492-.732 62.28 1.866 1.542.837 1.378 7.79 0 6.704-3.558-2.806-18.37-41.993-22.552-50.637"/><path vector-effect="non-scaling-stroke" d="M134.831 33.621c1.872-8 23.173-9.155 17.226-16.704C134.053-5.94 88.026-1.393 64.041 7.424c-22.09 8.12-34.54 19.053-49.734 33.891C-6.937 62.062-1.73 122.28 12.62 135.573"/><path vector-effect="non-scaling-stroke" d="M13.167 134.804c.089.361 3.891 28.29 11.084 30.76 1.056.363 2.335.467 3.35 0 1.213-.557 2.242-1.638 2.828-2.839.19-.389-.775-.386-1.162-.58M97.977 136c-.075 7.055-3.977 10.545 0 14.47 3.976 3.925 13.024 2.296 18.64 8.212 8.52 8.973-14.857 18.856-22.617 17.6m-6.755 4.683c31.203.502 30.21 6.78 42.986-15.054"/></g></g></svg>